<?xml version="1.0" standalone="no"?><!-- Generator: Gravit.io --><svg xmlns="http://www.w3.org/2000/svg" xmlns:xlink="http://www.w3.org/1999/xlink" style="isolation:isolate" viewBox="0 0 34 27.6" width="34" height="27.6"><defs><clipPath id="_clipPath_gAkmVQGubTle2R4lFdfeC5uhDiWRiboA"><rect x="0" y="0" width="34" height="27.6"/></clipPath></defs><g clip-path="url(#_clipPath_gAkmVQGubTle2R4lFdfeC5uhDiWRiboA)"><g><path d=" M 2.2 2.2 L 8.6 2.2 L 8.6 0 L 0 0 L 0 8.6 L 2.2 8.6 L 2.2 2.2 Z " fill="rgb(255,255,255)"/><path d=" M 25.4 0 L 25.4 2.2 L 31.8 2.2 L 31.8 8.6 L 34 8.6 L 34 0 L 25.4 0 Z " fill="rgb(255,255,255)"/><path d=" M 31.8 25.4 L 25.4 25.4 L 25.4 27.6 L 34 27.6 L 34 19 L 31.8 19 L 31.8 25.4 Z " fill="rgb(255,255,255)"/><path d=" M 2.2 19 L 0 19 L 0 27.6 L 8.6 27.6 L 8.6 25.4 L 2.2 25.4 L 2.2 19 Z " fill="rgb(255,255,255)"/><path d=" M 5.4 22.2 L 28.6 22.2 L 28.6 5.4 L 5.4 5.4 L 5.4 22.2 Z  M 8.6 8.6 L 25.4 8.6 L 25.4 19 L 8.6 19 L 8.6 8.6 Z " fill="rgb(255,255,255)"/></g></g></svg>