<?xml version="1.0" standalone="no"?><!-- Generator: Gravit.io --><svg xmlns="http://www.w3.org/2000/svg" xmlns:xlink="http://www.w3.org/1999/xlink" style="isolation:isolate" viewBox="784.5 531.5 61 60" width="61" height="60"><defs><clipPath id="_clipPath_GRbcSEKrKF19O88zdaPDZKfv8JbpXXJi"><rect x="784.5" y="531.5" width="61" height="60"/></clipPath></defs><g clip-path="url(#_clipPath_GRbcSEKrKF19O88zdaPDZKfv8JbpXXJi)"><g><g><path d=" M 829.333 583.088 L 833.667 583.088 C 834.263 583.088 834.75 582.578 834.75 581.958 L 834.75 576.306 C 834.75 575.684 835.237 575.176 835.833 575.176 L 839.083 575.176 C 839.679 575.176 839.843 574.795 839.447 574.331 L 832.219 565.848 C 831.824 565.384 831.176 565.384 830.781 565.848 L 823.553 574.331 C 823.157 574.795 823.321 575.176 823.917 575.176 L 827.167 575.176 C 827.763 575.176 828.25 575.684 828.25 576.306 L 828.25 581.958 C 828.25 582.578 828.737 583.088 829.333 583.088 Z " fill="rgb(255,255,255)"/><path d=" M 843.417 582.458 L 842.333 582.458 C 841.738 582.458 841.25 582.967 841.25 583.588 L 841.25 586.979 C 841.25 587.601 840.762 588.109 840.167 588.109 L 822.833 588.109 C 822.238 588.109 821.75 587.601 821.75 586.979 L 821.75 583.588 C 821.75 582.967 821.262 582.458 820.667 582.458 L 819.583 582.458 C 818.988 582.458 818.5 582.967 818.5 583.588 L 818.5 590.37 C 818.5 590.991 818.988 591.5 819.583 591.5 L 843.417 591.5 C 844.012 591.5 844.5 590.991 844.5 590.37 L 844.5 583.588 C 844.5 582.967 844.012 582.458 843.417 582.458 Z " fill="rgb(255,255,255)"/></g><g><path d=" M 845.5 550.052 C 836.833 538.82 828.167 561.284 819.5 550.052 C 819.5 546.231 819.5 542.41 819.5 538.59 C 828.167 549.822 836.833 527.357 845.5 538.59 C 845.5 542.41 845.5 546.231 845.5 550.052 Z " fill="rgb(255,255,255)"/><path d=" M 826.172 541.538 L 829.904 535.204 L 827.79 535.204 L 827.79 531.5 L 824.561 531.5 L 824.561 535.204 L 822.44 535.204 L 826.172 541.538 Z " fill="rgb(255,255,255)"/><path d=" M 839.02 547.44 L 835.279 553.789 L 837.398 553.789 L 837.398 557.5 L 840.635 557.5 L 840.635 553.789 L 842.761 553.789 L 839.02 547.44 Z " fill="rgb(255,255,255)"/></g><g><path d=" M 810.5 582.058 C 810.5 580.498 809.446 579.184 807.982 578.637 L 807.982 566.814 C 807.982 566.075 807.338 565.5 806.577 565.5 C 805.786 565.5 805.171 566.102 805.171 566.814 L 805.171 578.637 C 803.707 579.157 802.653 580.498 802.653 582.058 C 802.653 583.618 803.707 584.932 805.171 585.479 L 805.171 590.186 C 805.171 590.925 805.815 591.5 806.577 591.5 C 807.367 591.5 807.982 590.898 807.982 590.186 L 807.982 585.479 C 809.475 584.959 810.5 583.618 810.5 582.058 Z  M 806.577 583.071 C 805.991 583.071 805.493 582.605 805.493 582.058 C 805.493 581.511 805.991 581.045 806.577 581.045 C 807.162 581.045 807.66 581.511 807.66 582.058 C 807.66 582.633 807.191 583.071 806.577 583.071 Z " fill="rgb(255,255,255)"/><path d=" M 798.905 571.521 L 798.905 566.814 C 798.905 566.075 798.261 565.5 797.5 565.5 C 796.709 565.5 796.095 566.102 796.095 566.814 L 796.095 571.521 C 794.631 572.041 793.577 573.382 793.577 574.942 C 793.577 576.502 794.631 577.816 796.095 578.363 L 796.095 590.186 C 796.095 590.925 796.739 591.5 797.5 591.5 C 798.291 591.5 798.905 590.898 798.905 590.186 L 798.905 578.363 C 800.369 577.843 801.423 576.502 801.423 574.942 C 801.423 573.382 800.369 572.068 798.905 571.521 Z  M 797.5 575.955 C 796.914 575.955 796.417 575.489 796.417 574.942 C 796.417 574.395 796.914 573.929 797.5 573.929 C 798.086 573.929 798.583 574.395 798.583 574.942 C 798.583 575.517 798.086 575.955 797.5 575.955 Z " fill="rgb(255,255,255)"/><path d=" M 789.829 578.637 L 789.829 566.814 C 789.829 566.075 789.185 565.5 788.423 565.5 C 787.633 565.5 787.018 566.102 787.018 566.814 L 787.018 578.637 C 785.554 579.157 784.5 580.498 784.5 582.058 C 784.5 583.618 785.554 584.932 787.018 585.479 L 787.018 590.186 C 787.018 590.925 787.662 591.5 788.423 591.5 C 789.214 591.5 789.829 590.898 789.829 590.186 L 789.829 585.479 C 791.293 584.959 792.347 583.618 792.347 582.058 C 792.347 580.498 791.293 579.184 789.829 578.637 Z  M 788.423 583.071 C 787.838 583.071 787.34 582.605 787.34 582.058 C 787.34 581.511 787.838 581.045 788.423 581.045 C 789.009 581.045 789.507 581.511 789.507 582.058 C 789.507 582.633 789.009 583.071 788.423 583.071 Z " fill="rgb(255,255,255)"/></g><g><path d=" M 799.667 531.5 L 795.333 531.5 C 794.737 531.5 794.25 532.01 794.25 532.63 L 794.25 538.281 C 794.25 538.904 793.763 539.412 793.167 539.412 L 789.917 539.412 C 789.321 539.412 789.157 539.793 789.553 540.257 L 796.781 548.74 C 797.176 549.204 797.824 549.204 798.219 548.74 L 805.447 540.257 C 805.843 539.793 805.679 539.412 805.083 539.412 L 801.833 539.412 C 801.237 539.412 800.75 538.904 800.75 538.281 L 800.75 532.63 C 800.75 532.01 800.263 531.5 799.667 531.5 Z " fill="rgb(255,255,255)"/><path d=" M 809.417 548.458 L 808.333 548.458 C 807.738 548.458 807.25 548.967 807.25 549.588 L 807.25 552.979 C 807.25 553.601 806.762 554.109 806.167 554.109 L 788.833 554.109 C 788.238 554.109 787.75 553.601 787.75 552.979 L 787.75 549.588 C 787.75 548.967 787.262 548.458 786.667 548.458 L 785.583 548.458 C 784.988 548.458 784.5 548.967 784.5 549.588 L 784.5 556.37 C 784.5 556.991 784.988 557.5 785.583 557.5 L 809.417 557.5 C 810.012 557.5 810.5 556.991 810.5 556.37 L 810.5 549.588 C 810.5 548.967 810.012 548.458 809.417 548.458 Z " fill="rgb(255,255,255)"/></g></g></g></svg>