<svg xmlns="http://www.w3.org/2000/svg" width="1440" height="900"><path d="M749,425L615,356L665,476Z" fill="#7bbe92" stroke="#7bbe92" stroke-width="1.51"/><path d="M749,425L763,311L615,356Z" fill="#82c295" stroke="#82c295" stroke-width="1.51"/><path d="M571,589L655,555L665,476Z" fill="#72b690" stroke="#72b690" stroke-width="1.51"/><path d="M682,203L573,306L615,356Z" fill="#a2d1a3" stroke="#a2d1a3" stroke-width="1.51"/><path d="M665,476L791,573L749,425Z" fill="#66b28b" stroke="#66b28b" stroke-width="1.51"/><path d="M506,457L665,476L615,356Z" fill="#85c396" stroke="#85c396" stroke-width="1.51"/><path d="M763,311L682,203L615,356Z" fill="#98cb9f" stroke="#98cb9f" stroke-width="1.51"/><path d="M853,237L770,260L763,311Z" fill="#92c79d" stroke="#92c79d" stroke-width="1.51"/><path d="M573,306L506,457L615,356Z" fill="#98cb9f" stroke="#98cb9f" stroke-width="1.51"/><path d="M770,260L682,203L763,311Z" fill="#99cc9f" stroke="#99cc9f" stroke-width="1.51"/><path d="M655,555L791,573L665,476Z" fill="#66b18c" stroke="#66b18c" stroke-width="1.51"/><path d="M925,378L853,237L763,311Z" fill="#86c099" stroke="#86c099" stroke-width="1.51"/><path d="M506,457L571,589L665,476Z" fill="#7ebd94" stroke="#7ebd94" stroke-width="1.51"/><path d="M655,555L739,661L791,573Z" fill="#5cab89" stroke="#5cab89" stroke-width="1.51"/><path d="M573,306L427,369L506,457Z" fill="#a1d1a3" stroke="#a1d1a3" stroke-width="1.51"/><path d="M682,203L523,234L573,306Z" fill="#b1d8aa" stroke="#b1d8aa" stroke-width="1.51"/><path d="M571,589L644,632L655,555Z" fill="#6fb38f" stroke="#6fb38f" stroke-width="1.51"/><path d="M925,378L763,311L749,425Z" fill="#79bb93" stroke="#79bb93" stroke-width="1.51"/><path d="M770,260L691,127L682,203Z" fill="#a9d4a6" stroke="#a9d4a6" stroke-width="1.51"/><path d="M791,573L865,557L749,425Z" fill="#5fad89" stroke="#5fad89" stroke-width="1.51"/><path d="M878,638L865,557L791,573Z" fill="#55a588" stroke="#55a588" stroke-width="1.51"/><path d="M506,457L418,574L571,589Z" fill="#88c199" stroke="#88c199" stroke-width="1.51"/><path d="M427,369L442,474L506,457Z" fill="#9acea0" stroke="#9acea0" stroke-width="1.51"/><path d="M933,483L925,378L749,425Z" fill="#67b18c" stroke="#67b18c" stroke-width="1.51"/><path d="M523,234L427,369L573,306Z" fill="#b1d8aa" stroke="#b1d8aa" stroke-width="1.51"/><path d="M644,632L739,661L655,555Z" fill="#62ac8c" stroke="#62ac8c" stroke-width="1.51"/><path d="M865,557L933,483L749,425Z" fill="#5fad8a" stroke="#5fad8a" stroke-width="1.51"/><path d="M682,203L521,131L523,234Z" fill="#c0e0b1" stroke="#c0e0b1" stroke-width="1.51"/><path d="M853,237L691,127L770,260Z" fill="#a2cfa4" stroke="#a2cfa4" stroke-width="1.51"/><path d="M523,234L419,247L427,369Z" fill="#bedfaf" stroke="#bedfaf" stroke-width="1.51"/><path d="M453,134L419,247L523,234Z" fill="#cee7b7" stroke="#cee7b7" stroke-width="1.51"/><path d="M865,557L968,559L933,483Z" fill="#55a588" stroke="#55a588" stroke-width="1.51"/><path d="M739,661L878,638L791,573Z" fill="#54a488" stroke="#54a488" stroke-width="1.51"/><path d="M691,127L521,131L682,203Z" fill="#c0e0b1" stroke="#c0e0b1" stroke-width="1.51"/><path d="M442,474L418,574L506,457Z" fill="#92c79d" stroke="#92c79d" stroke-width="1.51"/><path d="M571,589L584,721L644,632Z" fill="#6db090" stroke="#6db090" stroke-width="1.51"/><path d="M644,632L694,755L739,661Z" fill="#59a68a" stroke="#59a68a" stroke-width="1.51"/><path d="M336,461L418,574L442,474Z" fill="#9ccba2" stroke="#9ccba2" stroke-width="1.51"/><path d="M336,461L442,474L427,369Z" fill="#a3d1a4" stroke="#a3d1a4" stroke-width="1.51"/><path d="M933,483L996,413L925,378Z" fill="#62ad8c" stroke="#62ad8c" stroke-width="1.51"/><path d="M925,378L1007,302L853,237Z" fill="#81bc97" stroke="#81bc97" stroke-width="1.51"/><path d="M968,559L996,413L933,483Z" fill="#57a688" stroke="#57a688" stroke-width="1.51"/><path d="M878,638L968,559L865,557Z" fill="#51a287" stroke="#51a287" stroke-width="1.51"/><path d="M411,703L584,721L571,589Z" fill="#78b595" stroke="#78b595" stroke-width="1.51"/><path d="M739,661L873,766L878,638Z" fill="#4b9e86" stroke="#4b9e86" stroke-width="1.51"/><path d="M419,247L350,321L427,369Z" fill="#c0dfb1" stroke="#c0dfb1" stroke-width="1.51"/><path d="M331,212L350,321L419,247Z" fill="#d1e8b8" stroke="#d1e8b8" stroke-width="1.51"/><path d="M870,92L735,66L691,127Z" fill="#adca9f" stroke="#adca9f" stroke-width="1.51"/><path d="M691,127L571,12L521,131Z" fill="#c2d5a6" stroke="#c2d5a6" stroke-width="1.51"/><path d="M870,92L691,127L853,237Z" fill="#add4a9" stroke="#add4a9" stroke-width="1.51"/><path d="M996,413L1007,302L925,378Z" fill="#70b291" stroke="#70b291" stroke-width="1.51"/><path d="M350,321L336,461L427,369Z" fill="#b4daab" stroke="#b4daab" stroke-width="1.51"/><path d="M521,131L453,134L523,234Z" fill="#d2e9b9" stroke="#d2e9b9" stroke-width="1.51"/><path d="M571,12L453,134L521,131Z" fill="#cfdcad" stroke="#cfdcad" stroke-width="1.51"/><path d="M584,721L694,755L644,632Z" fill="#61a98d" stroke="#61a98d" stroke-width="1.51"/><path d="M1007,302L986,217L853,237Z" fill="#8dc19d" stroke="#8dc19d" stroke-width="1.51"/><path d="M991,146L870,92L853,237Z" fill="#a6cea7" stroke="#a6cea7" stroke-width="1.51"/><path d="M354,128L331,212L419,247Z" fill="#dfefbf" stroke="#dfefbf" stroke-width="1.51"/><path d="M350,321L212,350L336,461Z" fill="#c1e0b1" stroke="#c1e0b1" stroke-width="1.51"/><path d="M418,574L411,703L571,589Z" fill="#86bd9a" stroke="#86bd9a" stroke-width="1.51"/><path d="M615,923L767,837L694,755Z" fill="#4e9481" stroke="#4e9481" stroke-width="1.51"/><path d="M310,600L411,703L418,574Z" fill="#94c3a0" stroke="#94c3a0" stroke-width="1.51"/><path d="M625,-27L691,127L735,66Z" fill="#aec195" stroke="#aec195" stroke-width="1.51"/><path d="M625,-27L571,12L691,127Z" fill="#b2bf93" stroke="#b2bf93" stroke-width="1.51"/><path d="M453,134L354,128L419,247Z" fill="#dfefbf" stroke="#dfefbf" stroke-width="1.51"/><path d="M986,217L991,146L853,237Z" fill="#99c7a3" stroke="#99c7a3" stroke-width="1.51"/><path d="M1141,215L991,146L986,217Z" fill="#95c2a2" stroke="#95c2a2" stroke-width="1.51"/><path d="M870,92L783,9L735,66Z" fill="#a3ba91" stroke="#a3ba91" stroke-width="1.51"/><path d="M853,-19L783,9L870,92Z" fill="#9cae88" stroke="#9cae88" stroke-width="1.51"/><path d="M694,755L873,766L739,661Z" fill="#4c9e86" stroke="#4c9e86" stroke-width="1.51"/><path d="M878,638L965,715L968,559Z" fill="#499c85" stroke="#499c85" stroke-width="1.51"/><path d="M292,651L310,600L226,531Z" fill="#a7cea8" stroke="#a7cea8" stroke-width="1.51"/><path d="M336,461L310,600L418,574Z" fill="#9fcca4" stroke="#9fcca4" stroke-width="1.51"/><path d="M451,-46L354,128L453,134Z" fill="#d9dcad" stroke="#d9dcad" stroke-width="1.51"/><path d="M996,413L1099,437L1007,302Z" fill="#67ad8e" stroke="#67ad8e" stroke-width="1.51"/><path d="M1007,302L1141,215L986,217Z" fill="#89bc9c" stroke="#89bc9c" stroke-width="1.51"/><path d="M968,559L1099,437L996,413Z" fill="#54a588" stroke="#54a588" stroke-width="1.51"/><path d="M1147,597L1099,437L968,559Z" fill="#4a9d86" stroke="#4a9d86" stroke-width="1.51"/><path d="M873,766L965,715L878,638Z" fill="#449885" stroke="#449885" stroke-width="1.51"/><path d="M783,9L625,-27L735,66Z" fill="#a1b186" stroke="#a1b186" stroke-width="1.51"/><path d="M571,12L451,-46L453,134Z" fill="#c6c89b" stroke="#c6c89b" stroke-width="1.51"/><path d="M921,867L1036,758L965,715Z" fill="#378e81" stroke="#378e81" stroke-width="1.51"/><path d="M694,755L767,837L873,766Z" fill="#469883" stroke="#469883" stroke-width="1.51"/><path d="M582,907L694,755L584,721Z" fill="#5da18a" stroke="#5da18a" stroke-width="1.51"/><path d="M783,9L631,-103L625,-27Z" fill="#9b9f76" stroke="#9b9f76" stroke-width="1.51"/><path d="M999,-4L853,-19L870,92Z" fill="#97a885" stroke="#97a885" stroke-width="1.51"/><path d="M226,531L310,600L336,461Z" fill="#aad2a8" stroke="#aad2a8" stroke-width="1.51"/><path d="M310,600L292,651L411,703Z" fill="#98c4a3" stroke="#98c4a3" stroke-width="1.51"/><path d="M421,815L511,829L411,703Z" fill="#7bb097" stroke="#7bb097" stroke-width="1.51"/><path d="M411,703L511,829L584,721Z" fill="#74af95" stroke="#74af95" stroke-width="1.51"/><path d="M331,212L212,350L350,321Z" fill="#d4e9ba" stroke="#d4e9ba" stroke-width="1.51"/><path d="M193,219L212,350L331,212Z" fill="#e0edbd" stroke="#e0edbd" stroke-width="1.51"/><path d="M198,410L226,531L336,461Z" fill="#b4d8aa" stroke="#b4d8aa" stroke-width="1.51"/><path d="M212,350L198,410L336,461Z" fill="#bfddaf" stroke="#bfddaf" stroke-width="1.51"/><path d="M1099,437L1157,349L1007,302Z" fill="#69ad90" stroke="#69ad90" stroke-width="1.51"/><path d="M1219,420L1157,349L1099,437Z" fill="#5aa48b" stroke="#5aa48b" stroke-width="1.51"/><path d="M272,838L421,815L411,703Z" fill="#87b59c" stroke="#87b59c" stroke-width="1.51"/><path d="M767,837L815,871L873,766Z" fill="#428f7e" stroke="#428f7e" stroke-width="1.51"/><path d="M769,998L815,871L767,837Z" fill="#418577" stroke="#418577" stroke-width="1.51"/><path d="M1157,349L1141,215L1007,302Z" fill="#7bb497" stroke="#7bb497" stroke-width="1.51"/><path d="M991,146L999,-4L870,92Z" fill="#9fb997" stroke="#9fb997" stroke-width="1.51"/><path d="M538,-116L451,-46L571,12Z" fill="#b0a77e" stroke="#b0a77e" stroke-width="1.51"/><path d="M223,120L193,219L331,212Z" fill="#f2f7c6" stroke="#f2f7c6" stroke-width="1.51"/><path d="M538,-116L571,12L625,-27Z" fill="#a9a57c" stroke="#a9a57c" stroke-width="1.51"/><path d="M818,-120L631,-103L783,9Z" fill="#8e9069" stroke="#8e9069" stroke-width="1.51"/><path d="M965,715L1147,597L968,559Z" fill="#449885" stroke="#449885" stroke-width="1.51"/><path d="M921,867L965,715L873,766Z" fill="#3b9082" stroke="#3b9082" stroke-width="1.51"/><path d="M1113,726L1147,597L965,715Z" fill="#399182" stroke="#399182" stroke-width="1.51"/><path d="M511,829L582,907L584,721Z" fill="#66a18b" stroke="#66a18b" stroke-width="1.51"/><path d="M388,886L582,907L511,829Z" fill="#6d9d8a" stroke="#6d9d8a" stroke-width="1.51"/><path d="M212,350L100,414L198,410Z" fill="#b8cb9e" stroke="#b8cb9e" stroke-width="1.51"/><path d="M223,120L331,212L354,128Z" fill="#f4f9c9" stroke="#f4f9c9" stroke-width="1.51"/><path d="M1146,56L999,-4L991,146Z" fill="#96b092" stroke="#96b092" stroke-width="1.51"/><path d="M853,-19L818,-120L783,9Z" fill="#8f9671" stroke="#8f9671" stroke-width="1.51"/><path d="M582,907L615,923L694,755Z" fill="#579582" stroke="#579582" stroke-width="1.51"/><path d="M815,871L921,867L873,766Z" fill="#3d8a7d" stroke="#3d8a7d" stroke-width="1.51"/><path d="M883,1041L921,867L815,871Z" fill="#397c73" stroke="#397c73" stroke-width="1.51"/><path d="M1219,420L1196,308L1157,349Z" fill="#63a78e" stroke="#63a78e" stroke-width="1.51"/><path d="M1157,349L1196,308L1141,215Z" fill="#76b096" stroke="#76b096" stroke-width="1.51"/><path d="M292,651L272,838L411,703Z" fill="#93bfa2" stroke="#93bfa2" stroke-width="1.51"/><path d="M226,531L226,683L292,651Z" fill="#a6caa6" stroke="#a6caa6" stroke-width="1.51"/><path d="M97,684L226,683L226,531Z" fill="#9db997" stroke="#9db997" stroke-width="1.51"/><path d="M293,-58L223,120L354,128Z" fill="#ebe2b3" stroke="#ebe2b3" stroke-width="1.51"/><path d="M451,-46L293,-58L354,128Z" fill="#d3c89b" stroke="#d3c89b" stroke-width="1.51"/><path d="M631,-103L538,-116L625,-27Z" fill="#9e976e" stroke="#9e976e" stroke-width="1.51"/><path d="M847,-153L818,-120L853,-19Z" fill="#848260" stroke="#848260" stroke-width="1.51"/><path d="M631,-103L847,-153L538,-116Z" fill="#8b835d" stroke="#8b835d" stroke-width="1.51"/><path d="M1237,554L1219,420L1099,437Z" fill="#499c85" stroke="#499c85" stroke-width="1.51"/><path d="M1147,597L1237,554L1099,437Z" fill="#449885" stroke="#449885" stroke-width="1.51"/><path d="M1036,758L1113,726L965,715Z" fill="#368f82" stroke="#368f82" stroke-width="1.51"/><path d="M1077,828L1113,726L1036,758Z" fill="#2d8a80" stroke="#2d8a80" stroke-width="1.51"/><path d="M538,-116L434,-102L451,-46Z" fill="#ae9d75" stroke="#ae9d75" stroke-width="1.51"/><path d="M582,907L528,1039L615,923Z" fill="#5b8b7c" stroke="#5b8b7c" stroke-width="1.51"/><path d="M421,815L388,886L511,829Z" fill="#78a792" stroke="#78a792" stroke-width="1.51"/><path d="M272,838L388,886L421,815Z" fill="#84ac96" stroke="#84ac96" stroke-width="1.51"/><path d="M198,410L100,414L226,531Z" fill="#acc699" stroke="#acc699" stroke-width="1.51"/><path d="M70,362L100,414L212,350Z" fill="#b6c295" stroke="#b6c295" stroke-width="1.51"/><path d="M70,362L212,350L193,219Z" fill="#c8d1a3" stroke="#c8d1a3" stroke-width="1.51"/><path d="M818,-120L847,-153L631,-103Z" fill="#827d58" stroke="#827d58" stroke-width="1.51"/><path d="M1025,-129L847,-153L853,-19Z" fill="#7f7d5e" stroke="#7f7d5e" stroke-width="1.51"/><path d="M1218,633L1237,554L1147,597Z" fill="#3a9081" stroke="#3a9081" stroke-width="1.51"/><path d="M999,-4L1025,-129L853,-19Z" fill="#868c6d" stroke="#868c6d" stroke-width="1.51"/><path d="M1141,215L1146,56L991,146Z" fill="#9ec5a7" stroke="#9ec5a7" stroke-width="1.51"/><path d="M1203,60L1146,56L1141,215Z" fill="#97b99f" stroke="#97b99f" stroke-width="1.51"/><path d="M1240,215L1141,215L1196,308Z" fill="#80b399" stroke="#80b399" stroke-width="1.51"/><path d="M1113,726L1218,633L1147,597Z" fill="#368f82" stroke="#368f82" stroke-width="1.51"/><path d="M921,867L1077,828L1036,758Z" fill="#32867d" stroke="#32867d" stroke-width="1.51"/><path d="M1313,638L1218,633L1205,834Z" fill="#2b837c" stroke="#2b837c" stroke-width="1.51"/><path d="M1364,360L1240,215L1196,308Z" fill="#70a58f" stroke="#70a58f" stroke-width="1.51"/><path d="M1364,360L1196,308L1219,420Z" fill="#609e89" stroke="#609e89" stroke-width="1.51"/><path d="M226,683L272,838L292,651Z" fill="#9dc4a6" stroke="#9dc4a6" stroke-width="1.51"/><path d="M246,833L272,838L226,683Z" fill="#97bba1" stroke="#97bba1" stroke-width="1.51"/><path d="M223,120L108,195L193,219Z" fill="#e8e4b5" stroke="#e8e4b5" stroke-width="1.51"/><path d="M434,-102L293,-58L451,-46Z" fill="#bfaa80" stroke="#bfaa80" stroke-width="1.51"/><path d="M1146,56L1130,8L999,-4Z" fill="#8b9d82" stroke="#8b9d82" stroke-width="1.51"/><path d="M1203,60L1130,8L1146,56Z" fill="#8ba188" stroke="#8ba188" stroke-width="1.51"/><path d="M615,923L769,998L767,837Z" fill="#458576" stroke="#458576" stroke-width="1.51"/><path d="M921,867L1082,865L1077,828Z" fill="#308079" stroke="#308079" stroke-width="1.51"/><path d="M662,1072L769,998L615,923Z" fill="#477c71" stroke="#477c71" stroke-width="1.51"/><path d="M58,101L108,195L223,120Z" fill="#eaddaf" stroke="#eaddaf" stroke-width="1.51"/><path d="M108,195L70,362L193,219Z" fill="#cfcea1" stroke="#cfcea1" stroke-width="1.51"/><path d="M117,763L246,833L226,683Z" fill="#93b297" stroke="#93b297" stroke-width="1.51"/><path d="M272,838L325,943L388,886Z" fill="#86a794" stroke="#86a794" stroke-width="1.51"/><path d="M97,684L226,531L42,602Z" fill="#98ac8a" stroke="#98ac8a" stroke-width="1.51"/><path d="M1077,828L1205,834L1113,726Z" fill="#27837c" stroke="#27837c" stroke-width="1.51"/><path d="M1023,956L1082,865L921,867Z" fill="#2f7a74" stroke="#2f7a74" stroke-width="1.51"/><path d="M1240,215L1203,60L1141,215Z" fill="#92bca2" stroke="#92bca2" stroke-width="1.51"/><path d="M434,-102L359,-142L293,-58Z" fill="#bca078" stroke="#bca078" stroke-width="1.51"/><path d="M538,-116L359,-142L434,-102Z" fill="#ac946d" stroke="#ac946d" stroke-width="1.51"/><path d="M847,-153L359,-142L538,-116Z" fill="#95855e" stroke="#95855e" stroke-width="1.51"/><path d="M1161,-118L1025,-129L1130,8Z" fill="#787a62" stroke="#787a62" stroke-width="1.51"/><path d="M1130,8L1025,-129L999,-4Z" fill="#828a6f" stroke="#828a6f" stroke-width="1.51"/><path d="M42,602L226,531L100,414Z" fill="#9fb38b" stroke="#9fb38b" stroke-width="1.51"/><path d="M388,886L528,1039L582,907Z" fill="#699183" stroke="#699183" stroke-width="1.51"/><path d="M234,929L325,943L272,838Z" fill="#8da996" stroke="#8da996" stroke-width="1.51"/><path d="M234,929L272,838L246,833Z" fill="#92ae9a" stroke="#92ae9a" stroke-width="1.51"/><path d="M1237,554L1311,526L1219,420Z" fill="#439180" stroke="#439180" stroke-width="1.51"/><path d="M1313,638L1311,526L1237,554Z" fill="#3b897c" stroke="#3b897c" stroke-width="1.51"/><path d="M1313,638L1237,554L1218,633Z" fill="#37897e" stroke="#37897e" stroke-width="1.51"/><path d="M883,1041L1023,956L921,867Z" fill="#327470" stroke="#327470" stroke-width="1.51"/><path d="M1205,834L1218,633L1113,726Z" fill="#288780" stroke="#288780" stroke-width="1.51"/><path d="M409,1069L528,1039L388,886Z" fill="#6e8d81" stroke="#6e8d81" stroke-width="1.51"/><path d="M769,998L883,1041L815,871Z" fill="#3b7970" stroke="#3b7970" stroke-width="1.51"/><path d="M-32,527L42,602L100,414Z" fill="#949f78" stroke="#949f78" stroke-width="1.51"/><path d="M97,684L117,763L226,683Z" fill="#91aa8d" stroke="#91aa8d" stroke-width="1.51"/><path d="M14,810L117,763L97,684Z" fill="#85957d" stroke="#85957d" stroke-width="1.51"/><path d="M1311,526L1345,410L1219,420Z" fill="#48927e" stroke="#48927e" stroke-width="1.51"/><path d="M1240,215L1369,150L1203,60Z" fill="#94b59f" stroke="#94b59f" stroke-width="1.51"/><path d="M293,-58L176,-46L223,120Z" fill="#dec79b" stroke="#dec79b" stroke-width="1.51"/><path d="M193,-131L176,-46L293,-58Z" fill="#c9a67e" stroke="#c9a67e" stroke-width="1.51"/><path d="M528,1039L662,1072L615,923Z" fill="#547f75" stroke="#547f75" stroke-width="1.51"/><path d="M662,1072L883,1041L769,998Z" fill="#3b706a" stroke="#3b706a" stroke-width="1.51"/><path d="M1311,526L1426,437L1345,410Z" fill="#458a79" stroke="#458a79" stroke-width="1.51"/><path d="M1205,834L1077,828L1082,865Z" fill="#277c78" stroke="#277c78" stroke-width="1.51"/><path d="M1259,951L1205,834L1082,865Z" fill="#1f7373" stroke="#1f7373" stroke-width="1.51"/><path d="M111,10L58,101L223,120Z" fill="#dfc89c" stroke="#dfc89c" stroke-width="1.51"/><path d="M108,195L-36,329L70,362Z" fill="#bcb78c" stroke="#bcb78c" stroke-width="1.51"/><path d="M-49,464L-32,527L100,414Z" fill="#949b73" stroke="#949b73" stroke-width="1.51"/><path d="M176,-46L111,10L223,120Z" fill="#dac095" stroke="#dac095" stroke-width="1.51"/><path d="M1426,437L1364,360L1345,410Z" fill="#528d7d" stroke="#528d7d" stroke-width="1.51"/><path d="M1345,410L1364,360L1219,420Z" fill="#559582" stroke="#559582" stroke-width="1.51"/><path d="M117,763L234,929L246,833Z" fill="#8ea590" stroke="#8ea590" stroke-width="1.51"/><path d="M325,943L409,1069L388,886Z" fill="#7a9789" stroke="#7a9789" stroke-width="1.51"/><path d="M1195,-118L1161,-118L1130,8Z" fill="#767963" stroke="#767963" stroke-width="1.51"/><path d="M1025,-129L1195,-118L847,-153Z" fill="#726d53" stroke="#726d53" stroke-width="1.51"/><path d="M1195,-118L1130,8L1284,-34Z" fill="#797f6a" stroke="#797f6a" stroke-width="1.51"/><path d="M1023,956L1081,989L1082,865Z" fill="#29716f" stroke="#29716f" stroke-width="1.51"/><path d="M962,1060L1081,989L1023,956Z" fill="#2a696a" stroke="#2a696a" stroke-width="1.51"/><path d="M-50,212L-36,329L108,195Z" fill="#c1b288" stroke="#c1b288" stroke-width="1.51"/><path d="M883,1041L962,1060L1023,956Z" fill="#2f6a69" stroke="#2f6a69" stroke-width="1.51"/><path d="M662,1072L962,1060L883,1041Z" fill="#366a67" stroke="#366a67" stroke-width="1.51"/><path d="M359,-142L193,-131L293,-58Z" fill="#c5a37a" stroke="#c5a37a" stroke-width="1.51"/><path d="M176,-46L101,-161L111,10Z" fill="#bd946e" stroke="#bd946e" stroke-width="1.51"/><path d="M-66,72L-50,212L58,101Z" fill="#d3b58c" stroke="#d3b58c" stroke-width="1.51"/><path d="M-69,706L14,810L97,684Z" fill="#7f886f" stroke="#7f886f" stroke-width="1.51"/><path d="M-49,464L100,414L70,362Z" fill="#a1a87e" stroke="#a1a87e" stroke-width="1.51"/><path d="M528,1039L409,1069L662,1072Z" fill="#5c7d74" stroke="#5c7d74" stroke-width="1.51"/><path d="M345,1073L409,1069L325,943Z" fill="#788e83" stroke="#788e83" stroke-width="1.51"/><path d="M-36,329L-49,464L70,362Z" fill="#a2a177" stroke="#a2a177" stroke-width="1.51"/><path d="M1161,-118L1195,-118L1025,-129Z" fill="#6f6b55" stroke="#6f6b55" stroke-width="1.51"/><path d="M1284,-34L1130,8L1203,60Z" fill="#84937c" stroke="#84937c" stroke-width="1.51"/><path d="M1364,360L1394,238L1240,215Z" fill="#73a08d" stroke="#73a08d" stroke-width="1.51"/><path d="M1432,241L1394,238L1364,360Z" fill="#6e9887" stroke="#6e9887" stroke-width="1.51"/><path d="M1394,238L1369,150L1240,215Z" fill="#83a894" stroke="#83a894" stroke-width="1.51"/><path d="M1351,26L1284,-34L1203,60Z" fill="#818c79" stroke="#818c79" stroke-width="1.51"/><path d="M409,1069L345,1073L662,1072Z" fill="#647f78" stroke="#647f78" stroke-width="1.51"/><path d="M185,989L345,1073L325,943Z" fill="#85988c" stroke="#85988c" stroke-width="1.51"/><path d="M1505,567L1426,437L1311,526Z" fill="#3e8074" stroke="#3e8074" stroke-width="1.51"/><path d="M1505,567L1311,526L1313,638Z" fill="#387f75" stroke="#387f75" stroke-width="1.51"/><path d="M-36,329L-104,330L-49,464Z" fill="#9b936b" stroke="#9b936b" stroke-width="1.51"/><path d="M58,101L-50,212L108,195Z" fill="#d6c296" stroke="#d6c296" stroke-width="1.51"/><path d="M3,18L58,101L111,10Z" fill="#cca981" stroke="#cca981" stroke-width="1.51"/><path d="M234,929L185,989L325,943Z" fill="#8b9f90" stroke="#8b9f90" stroke-width="1.51"/><path d="M62,956L185,989L234,929Z" fill="#80897c" stroke="#80897c" stroke-width="1.51"/><path d="M62,956L234,929L117,763Z" fill="#83907f" stroke="#83907f" stroke-width="1.51"/><path d="M1284,-34L1375,-112L1195,-118Z" fill="#6d6958" stroke="#6d6958" stroke-width="1.51"/><path d="M1369,150L1351,26L1203,60Z" fill="#8a9f8a" stroke="#8a9f8a" stroke-width="1.51"/><path d="M1471,33L1351,26L1369,150Z" fill="#849281" stroke="#849281" stroke-width="1.51"/><path d="M1394,238L1432,241L1369,150Z" fill="#7ea08f" stroke="#7ea08f" stroke-width="1.51"/><path d="M1458,374L1432,241L1364,360Z" fill="#639181" stroke="#639181" stroke-width="1.51"/><path d="M15,-147L3,18L111,10Z" fill="#b68863" stroke="#b68863" stroke-width="1.51"/><path d="M-69,706L42,602L-32,527Z" fill="#85896b" stroke="#85896b" stroke-width="1.51"/><path d="M-69,706L97,684L42,602Z" fill="#868f73" stroke="#868f73" stroke-width="1.51"/><path d="M1426,437L1458,374L1364,360Z" fill="#538b7b" stroke="#538b7b" stroke-width="1.51"/><path d="M-117,264L-104,330L-36,329Z" fill="#a5956d" stroke="#a5956d" stroke-width="1.51"/><path d="M-191,533L-69,706L-32,527Z" fill="#7c795a" stroke="#7c795a" stroke-width="1.51"/><path d="M-117,264L-36,329L-50,212Z" fill="#b09d75" stroke="#b09d75" stroke-width="1.51"/><path d="M1205,834L1369,771L1313,638Z" fill="#237a77" stroke="#237a77" stroke-width="1.51"/><path d="M1426,437L1566,489L1458,374Z" fill="#467e72" stroke="#467e72" stroke-width="1.51"/><path d="M1366,917L1369,771L1205,834Z" fill="#1e6b6e" stroke="#1e6b6e" stroke-width="1.51"/><path d="M1258,1048L1259,951L1081,989Z" fill="#1b6067" stroke="#1b6067" stroke-width="1.51"/><path d="M1081,989L1259,951L1082,865Z" fill="#216d6e" stroke="#216d6e" stroke-width="1.51"/><path d="M847,-153L101,-161L359,-142Z" fill="#a68963" stroke="#a68963" stroke-width="1.51"/><path d="M359,-142L101,-161L193,-131Z" fill="#b98d68" stroke="#b98d68" stroke-width="1.51"/><path d="M193,-131L101,-161L176,-46Z" fill="#b78a65" stroke="#b78a65" stroke-width="1.51"/><path d="M-142,138L-117,264L-50,212Z" fill="#b89b73" stroke="#b89b73" stroke-width="1.51"/><path d="M-191,453L-49,464L-104,330Z" fill="#8b835d" stroke="#8b835d" stroke-width="1.51"/><path d="M-191,533L-32,527L-49,464Z" fill="#84815e" stroke="#84815e" stroke-width="1.51"/><path d="M3,18L-66,72L58,101Z" fill="#c7a27a" stroke="#c7a27a" stroke-width="1.51"/><path d="M-175,26L-66,72L3,18Z" fill="#b48662" stroke="#b48662" stroke-width="1.51"/><path d="M-25,952L62,956L14,810Z" fill="#727062" stroke="#727062" stroke-width="1.51"/><path d="M14,810L62,956L117,763Z" fill="#7d8573" stroke="#7d8573" stroke-width="1.51"/><path d="M185,989L70,1018L345,1073Z" fill="#80887e" stroke="#80887e" stroke-width="1.51"/><path d="M1490,720L1313,638L1369,771Z" fill="#267371" stroke="#267371" stroke-width="1.51"/><path d="M1490,720L1505,567L1313,638Z" fill="#2f7370" stroke="#2f7370" stroke-width="1.51"/><path d="M1502,91L1369,150L1432,241Z" fill="#87a191" stroke="#87a191" stroke-width="1.51"/><path d="M101,-161L15,-147L111,10Z" fill="#ad7b58" stroke="#ad7b58" stroke-width="1.51"/><path d="M-117,264L-191,453L-104,330Z" fill="#95845e" stroke="#95845e" stroke-width="1.51"/><path d="M-66,72L-142,138L-50,212Z" fill="#c8a67d" stroke="#c8a67d" stroke-width="1.51"/><path d="M-175,26L-142,138L-66,72Z" fill="#b68964" stroke="#b68964" stroke-width="1.51"/><path d="M1259,951L1366,917L1205,834Z" fill="#1c676b" stroke="#1c676b" stroke-width="1.51"/><path d="M1258,1048L1366,917L1259,951Z" fill="#195a62" stroke="#195a62" stroke-width="1.51"/><path d="M-25,952L70,1018L62,956Z" fill="#6f6960" stroke="#6f6960" stroke-width="1.51"/><path d="M62,956L70,1018L185,989Z" fill="#77786d" stroke="#77786d" stroke-width="1.51"/><path d="M1351,26L1375,-112L1284,-34Z" fill="#737363" stroke="#737363" stroke-width="1.51"/><path d="M1195,-118L1375,-112L847,-153Z" fill="#6d6953" stroke="#6d6953" stroke-width="1.51"/><path d="M1451,-87L1375,-112L1351,26Z" fill="#6d675a" stroke="#6d675a" stroke-width="1.51"/><path d="M1471,33L1369,150L1502,91Z" fill="#859385" stroke="#859385" stroke-width="1.51"/><path d="M-142,138L-191,453L-117,264Z" fill="#a18762" stroke="#a18762" stroke-width="1.51"/><path d="M-69,706L-124,781L14,810Z" fill="#73745f" stroke="#73745f" stroke-width="1.51"/><path d="M962,1060L1258,1048L1081,989Z" fill="#226166" stroke="#226166" stroke-width="1.51"/><path d="M1511,826L1490,720L1369,771Z" fill="#1d676b" stroke="#1d676b" stroke-width="1.51"/><path d="M1502,91L1432,241L1551,216Z" fill="#7f988a" stroke="#7f988a" stroke-width="1.51"/><path d="M-191,453L-191,533L-49,464Z" fill="#7e7753" stroke="#7e7753" stroke-width="1.51"/><path d="M1551,216L1432,241L1574,322Z" fill="#6d8d81" stroke="#6d8d81" stroke-width="1.51"/><path d="M1366,917L1423,875L1369,771Z" fill="#1b6268" stroke="#1b6268" stroke-width="1.51"/><path d="M1425,1048L1423,875L1366,917Z" fill="#17535d" stroke="#17535d" stroke-width="1.51"/><path d="M-171,712L-124,781L-69,706Z" fill="#6e6953" stroke="#6e6953" stroke-width="1.51"/><path d="M-124,781L-25,952L14,810Z" fill="#6e6b5b" stroke="#6e6b5b" stroke-width="1.51"/><path d="M1566,489L1426,437L1505,567Z" fill="#3d776f" stroke="#3d776f" stroke-width="1.51"/><path d="M1574,322L1432,241L1458,374Z" fill="#638a7e" stroke="#638a7e" stroke-width="1.51"/><path d="M1600,553L1566,489L1505,567Z" fill="#376e6a" stroke="#376e6a" stroke-width="1.51"/><path d="M1566,489L1574,322L1458,374Z" fill="#4e7d73" stroke="#4e7d73" stroke-width="1.51"/><path d="M-191,533L-171,712L-69,706Z" fill="#716a50" stroke="#716a50" stroke-width="1.51"/><path d="M-131,1014L-52,1029L-25,952Z" fill="#5f4f48" stroke="#5f4f48" stroke-width="1.51"/><path d="M1471,33L1451,-87L1351,26Z" fill="#747467" stroke="#747467" stroke-width="1.51"/><path d="M1549,-29L1451,-87L1471,33Z" fill="#6e665d" stroke="#6e665d" stroke-width="1.51"/><path d="M1549,-29L1471,33L1502,91Z" fill="#77796e" stroke="#77796e" stroke-width="1.51"/><path d="M-178,-129L-175,26L3,18Z" fill="#9d6746" stroke="#9d6746" stroke-width="1.51"/><path d="M-142,138L-175,26L-191,453Z" fill="#ae8b64" stroke="#ae8b64" stroke-width="1.51"/><path d="M1566,489L1600,553L1574,322Z" fill="#3e726a" stroke="#3e726a" stroke-width="1.51"/><path d="M1574,682L1600,553L1505,567Z" fill="#306a69" stroke="#306a69" stroke-width="1.51"/><path d="M1574,682L1505,567L1490,720Z" fill="#2b696a" stroke="#2b696a" stroke-width="1.51"/><path d="M1423,875L1511,826L1369,771Z" fill="#1b6267" stroke="#1b6267" stroke-width="1.51"/><path d="M1544,1002L1511,826L1423,875Z" fill="#17515c" stroke="#17515c" stroke-width="1.51"/><path d="M1565,820L1574,682L1490,720Z" fill="#1f6167" stroke="#1f6167" stroke-width="1.51"/><path d="M1551,216L1584,137L1502,91Z" fill="#84968a" stroke="#84968a" stroke-width="1.51"/><path d="M1574,322L1584,137L1551,216Z" fill="#738b80" stroke="#738b80" stroke-width="1.51"/><path d="M1600,553L1584,137L1574,322Z" fill="#597e75" stroke="#597e75" stroke-width="1.51"/><path d="M-182,894L-25,952L-124,781Z" fill="#64584b" stroke="#64584b" stroke-width="1.51"/><path d="M-25,952L-52,1029L70,1018Z" fill="#685d55" stroke="#685d55" stroke-width="1.51"/><path d="M70,1018L-52,1029L345,1073Z" fill="#75736b" stroke="#75736b" stroke-width="1.51"/><path d="M1584,137L1549,-29L1502,91Z" fill="#7c8077" stroke="#7c8077" stroke-width="1.51"/><path d="M662,1072L1396,1067L962,1060Z" fill="#296163" stroke="#296163" stroke-width="1.51"/><path d="M962,1060L1396,1067L1258,1048Z" fill="#185761" stroke="#185761" stroke-width="1.51"/><path d="M1258,1048L1396,1067L1366,917Z" fill="#17505c" stroke="#17505c" stroke-width="1.51"/><path d="M1618,902L1565,820L1511,826Z" fill="#17515c" stroke="#17515c" stroke-width="1.51"/><path d="M1511,826L1565,820L1490,720Z" fill="#1a5e66" stroke="#1a5e66" stroke-width="1.51"/><path d="M1574,682L1618,902L1600,553Z" fill="#215e64" stroke="#215e64" stroke-width="1.51"/><path d="M1396,1067L1425,1048L1366,917Z" fill="#154b58" stroke="#154b58" stroke-width="1.51"/><path d="M-191,533L-182,894L-171,712Z" fill="#675d47" stroke="#675d47" stroke-width="1.51"/><path d="M-171,712L-182,894L-124,781Z" fill="#635a48" stroke="#635a48" stroke-width="1.51"/><path d="M15,-147L-178,-129L3,18Z" fill="#9a6141" stroke="#9a6141" stroke-width="1.51"/><path d="M-175,26L-178,-129L-191,453Z" fill="#b68964" stroke="#b68964" stroke-width="1.51"/><path d="M101,-161L-178,-129L15,-147Z" fill="#915537" stroke="#915537" stroke-width="1.51"/><path d="M-182,894L-131,1014L-25,952Z" fill="#5d4c44" stroke="#5d4c44" stroke-width="1.51"/><path d="M1549,-29L1559,-109L1451,-87Z" fill="#63544d" stroke="#63544d" stroke-width="1.51"/><path d="M1451,-87L1559,-109L1375,-112Z" fill="#615249" stroke="#615249" stroke-width="1.51"/><path d="M1375,-112L1559,-109L847,-153Z" fill="#675f4f" stroke="#675f4f" stroke-width="1.51"/><path d="M1584,137L1559,-109L1549,-29Z" fill="#6e6860" stroke="#6e6860" stroke-width="1.51"/><path d="M1396,1067L1544,1002L1425,1048Z" fill="#124151" stroke="#124151" stroke-width="1.51"/><path d="M1425,1048L1544,1002L1423,875Z" fill="#154957" stroke="#154957" stroke-width="1.51"/><path d="M1565,820L1618,902L1574,682Z" fill="#185660" stroke="#185660" stroke-width="1.51"/><path d="M1544,1002L1618,902L1511,826Z" fill="#144957" stroke="#144957" stroke-width="1.51"/><path d="M1600,553L1618,902L1584,137Z" fill="#366a67" stroke="#366a67" stroke-width="1.51"/></svg>