<?xml version="1.0" standalone="no"?><!-- Generator: Gravit.io --><svg xmlns="http://www.w3.org/2000/svg" xmlns:xlink="http://www.w3.org/1999/xlink" style="isolation:isolate" viewBox="0 0 32 31.976" width="32" height="31.976"><defs><clipPath id="_clipPath_FrMvt43x93IaBX1p3ShSVwqQ4vgjuaHv"><rect x="0" y="0" width="32" height="31.976"/></clipPath></defs><g clip-path="url(#_clipPath_FrMvt43x93IaBX1p3ShSVwqQ4vgjuaHv)"><g><path d=" M 2.071 2.071 L 8.094 2.071 L 8.094 0 L 0 0 L 0 8.094 L 2.071 8.094 L 2.071 2.071 Z " fill="rgb(0,0,0)"/><path d=" M 23.906 0 L 23.906 2.071 L 29.929 2.071 L 29.929 8.094 L 32 8.094 L 32 0 L 23.906 0 Z " fill="rgb(0,0,0)"/><path d=" M 29.929 29.906 L 23.906 29.906 L 23.906 31.976 L 32 31.976 L 32 23.882 L 29.929 23.882 L 29.929 29.906 Z " fill="rgb(0,0,0)"/><path d=" M 2.071 23.882 L 0 23.882 L 0 31.976 L 8.094 31.976 L 8.094 29.906 L 2.071 29.906 L 2.071 23.882 Z " fill="rgb(0,0,0)"/><path d=" M 5.082 26.894 L 26.918 26.894 L 26.918 5.082 L 5.082 5.082 L 5.082 26.894 Z  M 8.094 8.094 L 23.906 8.094 L 23.906 23.882 L 8.094 23.882 L 8.094 8.094 Z " fill="rgb(0,0,0)"/></g></g></svg>
