<svg xmlns="http://www.w3.org/2000/svg" xmlns:xlink="http://www.w3.org/1999/xlink" style="isolation:isolate" viewBox="3.906 12.668 67.711 53.262" width="67.711" height="53.262">
  <defs>
    <symbol id="icon-options" viewBox="0 0 32 32">
      <path d=" M 32 20.379 C 32 18.459 30.703 16.842 28.901 16.168 L 28.901 1.617 C 28.901 0.707 28.108 0 27.171 0 C 26.198 0 25.441 0.741 25.441 1.617 L 25.441 16.168 C 23.64 16.808 22.342 18.459 22.342 20.379 C 22.342 22.299 23.64 23.916 25.441 24.589 L 25.441 30.383 C 25.441 31.293 26.234 32 27.171 32 C 28.144 32 28.901 31.259 28.901 30.383 L 28.901 24.589 C 30.739 23.949 32 22.299 32 20.379 Z  M 27.171 21.625 C 26.45 21.625 25.838 21.053 25.838 20.379 C 25.838 19.705 26.45 19.133 27.171 19.133 C 27.892 19.133 28.505 19.705 28.505 20.379 C 28.505 21.086 27.928 21.625 27.171 21.625 Z "/>
      <path d=" M 17.73 7.411 L 17.73 1.617 C 17.73 0.707 16.937 0 16 0 C 15.027 0 14.27 0.741 14.27 1.617 L 14.27 7.411 C 12.468 8.051 11.171 9.701 11.171 11.621 C 11.171 13.541 12.468 15.158 14.27 15.832 L 14.27 30.383 C 14.27 31.293 15.063 32 16 32 C 16.973 32 17.73 31.259 17.73 30.383 L 17.73 15.832 C 19.532 15.192 20.829 13.541 20.829 11.621 C 20.829 9.701 19.532 8.084 17.73 7.411 Z  M 16 12.867 C 15.279 12.867 14.667 12.295 14.667 11.621 C 14.667 10.947 15.279 10.375 16 10.375 C 16.721 10.375 17.333 10.947 17.333 11.621 C 17.333 12.328 16.721 12.867 16 12.867 Z "/>
      <path d=" M 6.559 16.168 L 6.559 1.617 C 6.559 0.707 5.766 0 4.829 0 C 3.856 0 3.099 0.741 3.099 1.617 L 3.099 16.168 C 1.297 16.808 0 18.459 0 20.379 C 0 22.299 1.297 23.916 3.099 24.589 L 3.099 30.383 C 3.099 31.293 3.892 32 4.829 32 C 5.802 32 6.559 31.259 6.559 30.383 L 6.559 24.589 C 8.36 23.949 9.658 22.299 9.658 20.379 C 9.658 18.459 8.36 16.842 6.559 16.168 Z  M 4.829 21.625 C 4.108 21.625 3.495 21.053 3.495 20.379 C 3.495 19.705 4.108 19.133 4.829 19.133 C 5.55 19.133 6.162 19.705 6.162 20.379 C 6.162 21.086 5.55 21.625 4.829 21.625 Z "/>
    </symbol>
    <symbol id="icon-transform" viewBox="0 0 32 32">
      <path d=" M 32 22.833 C 21.333 9.009 10.667 36.657 0 22.833 C 0 18.131 0 13.428 0 8.726 C 10.667 22.55 21.333 -5.099 32 8.726 C 32 13.428 32 18.131 32 22.833 Z "/>
      <path d=" M 8.211 12.355 L 12.804 4.559 L 10.203 4.559 L 10.203 0 L 6.229 0 L 6.229 4.559 L 3.618 4.559 L 8.211 12.355 Z "/>
      <path d=" M 24.025 19.618 L 19.421 27.433 L 22.028 27.433 L 22.028 32 L 26.012 32 L 26.012 27.433 L 28.629 27.433 L 24.025 19.618 Z "/>
    </symbol>
    <symbol id="icon-input" viewBox="0 0 32 32">
      <path d=" M 18.667 0 L 13.333 0 C 12.6 0 12 0.601 12 1.333 L 12 8 C 12 8.735 11.4 9.333 10.667 9.333 L 6.667 9.333 C 5.933 9.333 5.732 9.783 6.219 10.331 L 15.115 20.337 C 15.601 20.885 16.399 20.885 16.885 20.337 L 25.781 10.331 C 26.268 9.783 26.067 9.333 25.333 9.333 L 21.333 9.333 C 20.6 9.333 20 8.735 20 8 L 20 1.333 C 20 0.601 19.4 0 18.667 0 Z "/>
      <path d=" M 30.667 20.005 L 29.333 20.005 C 28.6 20.005 28 20.605 28 21.339 L 28 25.339 C 28 26.072 27.4 26.672 26.667 26.672 L 5.333 26.672 C 4.6 26.672 4 26.072 4 25.339 L 4 21.339 C 4 20.605 3.4 20.005 2.667 20.005 L 1.333 20.005 C 0.6 20.005 0 20.605 0 21.339 L 0 29.339 C 0 30.072 0.6 30.672 1.333 30.672 L 30.667 30.672 C 31.4 30.672 32 30.072 32 29.339 L 32 21.339 C 32 20.605 31.4 20.005 30.667 20.005 Z "/>
    </symbol>
    <symbol id="icon-output" viewBox="0 0 32 32">
      <path d=" M 13.333 20.748 L 18.667 20.748 C 19.4 20.748 20 20.147 20 19.415 L 20 12.748 C 20 12.014 20.6 11.415 21.333 11.415 L 25.333 11.415 C 26.067 11.415 26.268 10.966 25.781 10.418 L 16.885 0.411 C 16.399 -0.137 15.601 -0.137 15.115 0.411 L 6.219 10.418 C 5.732 10.966 5.933 11.415 6.667 11.415 L 10.667 11.415 C 11.4 11.415 12 12.014 12 12.748 L 12 19.415 C 12 20.147 12.6 20.748 13.333 20.748 Z "/>
      <path d=" M 30.667 20.005 L 29.333 20.005 C 28.6 20.005 28 20.605 28 21.339 L 28 25.339 C 28 26.072 27.4 26.672 26.667 26.672 L 5.333 26.672 C 4.6 26.672 4 26.072 4 25.339 L 4 21.339 C 4 20.605 3.4 20.005 2.667 20.005 L 1.333 20.005 C 0.6 20.005 0 20.605 0 21.339 L 0 29.339 C 0 30.072 0.6 30.672 1.333 30.672 L 30.667 30.672 C 31.4 30.672 32 30.072 32 29.339 L 32 21.339 C 32 20.605 31.4 20.005 30.667 20.005 Z "/>
    </symbol>
    <!-- <symbol id="icon-fullscreen-rect" viewBox="0 0 32 32">
      <path d=" M 2.071 6.071 L 8.094 6.071 L 8.094 4 L 0 4 L 0 12.094 L 2.071 12.094 L 2.071 6.071 Z "/>
      <path d=" M 23.906 4 L 23.906 6.071 L 29.929 6.071 L 29.929 12.094 L 32 12.094 L 32 4 L 23.906 4 Z "/>
      <path d=" M 29.929 27.906 L 23.906 27.906 L 23.906 29.976 L 32 29.976 L 32 21.882 L 29.929 21.882 L 29.929 27.906 Z "/>
      <path d=" M 2.071 21.882 L 0 21.882 L 0 29.976 L 8.094 29.976 L 8.094 27.906 L 2.071 27.906 L 2.071 21.882 Z "/>
      <path d=" M 5.082 24.894 L 26.918 24.894 L 26.918 9.082 L 5.082 9.082 L 5.082 24.894 Z  M 8.094 12.094 L 23.906 12.094 L 23.906 21.882 L 8.094 21.882 L 8.094 12.094 Z "/>
    </symbol> -->
    <symbol id="icon-fullscreen" viewBox="0 0 32 32">
      <path d=" M 2.071 2.071 L 8.094 2.071 L 8.094 0 L 0 0 L 0 8.094 L 2.071 8.094 L 2.071 2.071 Z "/>
      <path d=" M 23.906 0 L 23.906 2.071 L 29.929 2.071 L 29.929 8.094 L 32 8.094 L 32 0 L 23.906 0 Z "/>
      <path d=" M 29.929 29.906 L 23.906 29.906 L 23.906 31.976 L 32 31.976 L 32 23.882 L 29.929 23.882 L 29.929 29.906 Z "/>
      <path d=" M 2.071 23.882 L 0 23.882 L 0 31.976 L 8.094 31.976 L 8.094 29.906 L 2.071 29.906 L 2.071 23.882 Z "/>
      <path d=" M 5.082 26.894 L 26.918 26.894 L 26.918 5.082 L 5.082 5.082 L 5.082 26.894 Z  M 8.094 8.094 L 23.906 8.094 L 23.906 23.882 L 8.094 23.882 L 8.094 8.094 Z "/>
    </symbol>
  </defs>
</svg>
