<?xml version="1.0" standalone="no"?><!-- Generator: Gravit.io --><svg xmlns="http://www.w3.org/2000/svg" xmlns:xlink="http://www.w3.org/1999/xlink" style="isolation:isolate" viewBox="0 0 32 30.672" width="32" height="30.672"><defs><clipPath id="_clipPath_dEMymUvFjT6zuuLKw8GOLTepkIV2ocSA"><rect x="0" y="0" width="32" height="30.672"/></clipPath></defs><g clip-path="url(#_clipPath_dEMymUvFjT6zuuLKw8GOLTepkIV2ocSA)"><g><path d=" M 18.667 0 L 13.333 0 C 12.6 0 12 0.601 12 1.333 L 12 8 C 12 8.735 11.4 9.333 10.667 9.333 L 6.667 9.333 C 5.933 9.333 5.732 9.783 6.219 10.331 L 15.115 20.337 C 15.601 20.885 16.399 20.885 16.885 20.337 L 25.781 10.331 C 26.268 9.783 26.067 9.333 25.333 9.333 L 21.333 9.333 C 20.6 9.333 20 8.735 20 8 L 20 1.333 C 20 0.601 19.4 0 18.667 0 Z " fill="rgb(0,0,0)"/><path d=" M 30.667 20.005 L 29.333 20.005 C 28.6 20.005 28 20.605 28 21.339 L 28 25.339 C 28 26.072 27.4 26.672 26.667 26.672 L 5.333 26.672 C 4.6 26.672 4 26.072 4 25.339 L 4 21.339 C 4 20.605 3.4 20.005 2.667 20.005 L 1.333 20.005 C 0.6 20.005 0 20.605 0 21.339 L 0 29.339 C 0 30.072 0.6 30.672 1.333 30.672 L 30.667 30.672 C 31.4 30.672 32 30.072 32 29.339 L 32 21.339 C 32 20.605 31.4 20.005 30.667 20.005 Z " fill="rgb(0,0,0)"/></g></g></svg>