<?xml version="1.0" standalone="no"?><!-- Generator: Gravit.io --><svg xmlns="http://www.w3.org/2000/svg" xmlns:xlink="http://www.w3.org/1999/xlink" style="isolation:isolate" viewBox="0 0 32 32" width="32" height="32"><defs><clipPath id="_clipPath_zLRsolforpKvRhVMwNT0vl9eUmP4qxC2"><rect x="0" y="0" width="32" height="32"/></clipPath></defs><g clip-path="url(#_clipPath_zLRsolforpKvRhVMwNT0vl9eUmP4qxC2)"><g><path d=" M 32 20.379 C 32 18.459 30.703 16.842 28.901 16.168 L 28.901 1.617 C 28.901 0.707 28.108 0 27.171 0 C 26.198 0 25.441 0.741 25.441 1.617 L 25.441 16.168 C 23.64 16.808 22.342 18.459 22.342 20.379 C 22.342 22.299 23.64 23.916 25.441 24.589 L 25.441 30.383 C 25.441 31.293 26.234 32 27.171 32 C 28.144 32 28.901 31.259 28.901 30.383 L 28.901 24.589 C 30.739 23.949 32 22.299 32 20.379 Z  M 27.171 21.625 C 26.45 21.625 25.838 21.053 25.838 20.379 C 25.838 19.705 26.45 19.133 27.171 19.133 C 27.892 19.133 28.505 19.705 28.505 20.379 C 28.505 21.086 27.928 21.625 27.171 21.625 Z " fill="rgb(0,0,0)"/><path d=" M 17.73 7.411 L 17.73 1.617 C 17.73 0.707 16.937 0 16 0 C 15.027 0 14.27 0.741 14.27 1.617 L 14.27 7.411 C 12.468 8.051 11.171 9.701 11.171 11.621 C 11.171 13.541 12.468 15.158 14.27 15.832 L 14.27 30.383 C 14.27 31.293 15.063 32 16 32 C 16.973 32 17.73 31.259 17.73 30.383 L 17.73 15.832 C 19.532 15.192 20.829 13.541 20.829 11.621 C 20.829 9.701 19.532 8.084 17.73 7.411 Z  M 16 12.867 C 15.279 12.867 14.667 12.295 14.667 11.621 C 14.667 10.947 15.279 10.375 16 10.375 C 16.721 10.375 17.333 10.947 17.333 11.621 C 17.333 12.328 16.721 12.867 16 12.867 Z " fill="rgb(0,0,0)"/><path d=" M 6.559 16.168 L 6.559 1.617 C 6.559 0.707 5.766 0 4.829 0 C 3.856 0 3.099 0.741 3.099 1.617 L 3.099 16.168 C 1.297 16.808 0 18.459 0 20.379 C 0 22.299 1.297 23.916 3.099 24.589 L 3.099 30.383 C 3.099 31.293 3.892 32 4.829 32 C 5.802 32 6.559 31.259 6.559 30.383 L 6.559 24.589 C 8.36 23.949 9.658 22.299 9.658 20.379 C 9.658 18.459 8.36 16.842 6.559 16.168 Z  M 4.829 21.625 C 4.108 21.625 3.495 21.053 3.495 20.379 C 3.495 19.705 4.108 19.133 4.829 19.133 C 5.55 19.133 6.162 19.705 6.162 20.379 C 6.162 21.086 5.55 21.625 4.829 21.625 Z " fill="rgb(0,0,0)"/></g></g></svg>
