<?xml version="1.0" standalone="no"?><!-- Generator: Gravit.io --><svg xmlns="http://www.w3.org/2000/svg" xmlns:xlink="http://www.w3.org/1999/xlink" style="isolation:isolate" viewBox="0 0 32 30.672" width="32" height="30.672"><defs><clipPath id="_clipPath_ak9mSmC2OkvI4rMMDhbvbpd6tytg35gF"><rect x="0" y="0" width="32" height="30.672"/></clipPath></defs><g clip-path="url(#_clipPath_ak9mSmC2OkvI4rMMDhbvbpd6tytg35gF)"><g><path d=" M 13.333 20.748 L 18.667 20.748 C 19.4 20.748 20 20.147 20 19.415 L 20 12.748 C 20 12.014 20.6 11.415 21.333 11.415 L 25.333 11.415 C 26.067 11.415 26.268 10.966 25.781 10.418 L 16.885 0.411 C 16.399 -0.137 15.601 -0.137 15.115 0.411 L 6.219 10.418 C 5.732 10.966 5.933 11.415 6.667 11.415 L 10.667 11.415 C 11.4 11.415 12 12.014 12 12.748 L 12 19.415 C 12 20.147 12.6 20.748 13.333 20.748 Z " fill="rgb(0,0,0)"/><path d=" M 30.667 20.005 L 29.333 20.005 C 28.6 20.005 28 20.605 28 21.339 L 28 25.339 C 28 26.072 27.4 26.672 26.667 26.672 L 5.333 26.672 C 4.6 26.672 4 26.072 4 25.339 L 4 21.339 C 4 20.605 3.4 20.005 2.667 20.005 L 1.333 20.005 C 0.6 20.005 0 20.605 0 21.339 L 0 29.339 C 0 30.072 0.6 30.672 1.333 30.672 L 30.667 30.672 C 31.4 30.672 32 30.072 32 29.339 L 32 21.339 C 32 20.605 31.4 20.005 30.667 20.005 Z " fill="rgb(0,0,0)"/></g></g></svg>
