<?xml version="1.0" standalone="no"?><!-- Generator: Gravit.io --><svg xmlns="http://www.w3.org/2000/svg" xmlns:xlink="http://www.w3.org/1999/xlink" style="isolation:isolate" viewBox="3.906 12.668 67.711 53.262" width="67.711" height="53.262"><defs><clipPath id="_clipPath_O1RgsFtnkCofXGUzT5i4Q9s0gZUTceeA"><rect x="3.906" y="12.668" width="67.711" height="53.262"/></clipPath></defs><g clip-path="url(#_clipPath_O1RgsFtnkCofXGUzT5i4Q9s0gZUTceeA)"><g><path d=" M 71.617 50.672 C 49.047 27.663 26.477 73.682 3.906 50.672 C 3.906 42.845 3.906 35.018 3.906 27.191 C 26.477 50.201 49.047 4.182 71.617 27.191 C 71.617 35.018 71.617 42.845 71.617 50.672 Z " fill="rgb(0,0,0)"/><path d=" M 21.281 33.232 L 31 20.256 L 25.496 20.256 L 25.496 12.668 L 17.087 12.668 L 17.087 20.256 L 11.563 20.256 L 21.281 33.232 Z " fill="rgb(0,0,0)"/><path d=" M 54.742 45.321 L 45 58.328 L 50.517 58.328 L 50.517 65.93 L 58.947 65.93 L 58.947 58.328 L 64.484 58.328 L 54.742 45.321 Z " fill="rgb(0,0,0)"/></g></g></svg>
